<svg xmlns="http://www.w3.org/2000/svg" xmlns:xlink="http://www.w3.org/1999/xlink" viewBox="0 0 173.85 28.08" width="173.85" height="28.08"><defs><style>.cls-1{fill:none;}.cls-2{clip-path:url(#clip-path);}.cls-3{fill:url(#Nepojmenovaný_přechod_6);}.cls-4{clip-path:url(#clip-path-2);}.cls-5{clip-path:url(#clip-path-3);}.cls-6{clip-path:url(#clip-path-4);}.cls-7{clip-path:url(#clip-path-5);}.cls-8{clip-path:url(#clip-path-6);}</style><clipPath id="clip-path"><polygon class="cls-1" points="17.17 0 17.17 10.11 8.8 10.11 8.8 0 0 0 0 28.08 8.8 28.08 8.8 17.13 17.17 17.13 17.17 28.08 25.97 28.08 25.97 0 17.17 0"/></clipPath><linearGradient id="Nepojmenovaný_přechod_6" y1="28.08" x2="1" y2="28.08" gradientTransform="matrix(-173.81, 0, 0, 173.81, 174.12, -4865.78)" gradientUnits="userSpaceOnUse"><stop offset="0" stop-color="#074a72"/><stop offset="1" stop-color="#15a4a6"/></linearGradient><clipPath id="clip-path-2"><polygon class="cls-1" points="29.94 0 29.94 28.08 48.66 28.08 48.66 21.06 38.74 21.06 38.74 17.09 47.47 17.09 47.47 10.47 38.74 10.47 38.74 7.02 48.66 7.02 48.66 0 29.94 0"/></clipPath><clipPath id="clip-path-3"><path class="cls-1" d="M60.79,7.38h3.49A2.59,2.59,0,0,1,66.16,8a2.3,2.3,0,0,1,.66,1.75,2.28,2.28,0,0,1-.64,1.8,2.75,2.75,0,0,1-1.9.57H60.79ZM52,0V28.08h8.8V18h0l5.28,10.08h9.67L69.67,17.33a8.64,8.64,0,0,0,4.51-3.13,8.39,8.39,0,0,0,1.56-5,9.14,9.14,0,0,0-1.21-4.7A8.39,8.39,0,0,0,70.9,1.21,12.84,12.84,0,0,0,65.07,0Z"/></clipPath><clipPath id="clip-path-4"><polygon class="cls-1" points="101.56 0 95.53 16.85 89.34 0 78.56 0 78.56 28.08 87.36 28.08 87.36 14.08 91.68 28.08 99.22 28.08 103.54 14.08 103.54 28.08 112.3 28.08 112.3 0 101.56 0"/></clipPath><clipPath id="clip-path-5"><path class="cls-1" d="M129.59,9.4l2.54,7.81h-5.07Zm-5-9.4L114.29,28.08h9.24l1.38-4.25h9.36l1.39,4.25h9.28L134.71,0Z"/></clipPath><clipPath id="clip-path-6"><polygon class="cls-1" points="165.04 0 165.04 14.36 155.72 0 146.92 0 146.92 28.08 155.72 28.08 155.72 13.96 165.04 28.08 173.85 28.08 173.85 0 165.04 0"/></clipPath></defs><g id="Vrstva_2" data-name="Vrstva 2"><g id="Vrstva_1-2" data-name="Vrstva 1"><g class="cls-2"><rect class="cls-3" width="25.97" height="28.08"/></g><g class="cls-4"><rect class="cls-3" x="29.94" width="18.72" height="28.08"/></g><g class="cls-5"><rect class="cls-3" x="51.99" width="23.79" height="28.08"/></g><g class="cls-6"><rect class="cls-3" x="78.56" width="33.75" height="28.08"/></g><g class="cls-7"><rect class="cls-3" x="114.29" width="30.65" height="28.08"/></g><g class="cls-8"><rect class="cls-3" x="146.92" width="26.93" height="28.08"/></g></g></g></svg>